<svg width="26" height="26" viewBox="0 0 26 26" fill="none" xmlns="http://www.w3.org/2000/svg">
<ellipse cx="12.9374" cy="12.9121" rx="11.7436" ry="7.7935" fill="#0061FF"/>
<path d="M13 0C10.4288 0 7.91543 0.762437 5.77759 2.19089C3.63975 3.61935 1.97351 5.64967 0.989572 8.02511C0.00563272 10.4006 -0.251811 13.0144 0.249797 15.5362C0.751405 18.0579 1.98953 20.3743 3.80762 22.1924C5.6257 24.0105 7.94208 25.2486 10.4638 25.7502C12.9856 26.2518 15.5994 25.9944 17.9749 25.0104C20.3503 24.0265 22.3806 22.3602 23.8091 20.2224C25.2376 18.0846 26 15.5712 26 13C25.996 9.55342 24.6251 6.24915 22.188 3.81204C19.7509 1.37494 16.4466 0.00401399 13 0V0ZM20.5043 8.88333L13.0888 18.9464C13.0013 19.0626 12.8915 19.1601 12.7658 19.2334C12.6402 19.3066 12.5012 19.3541 12.357 19.3731C12.2127 19.3921 12.0662 19.3821 11.9259 19.3438C11.7856 19.3055 11.6543 19.2397 11.5397 19.1501L6.24434 14.9164C6.13323 14.8275 6.04072 14.7176 5.9721 14.5929C5.90347 14.4682 5.86007 14.3313 5.84438 14.1898C5.81269 13.9042 5.89576 13.6176 6.07534 13.3932C6.25491 13.1689 6.51627 13.025 6.80192 12.9933C7.08757 12.9616 7.37411 13.0447 7.5985 13.2242L12.0142 16.757L18.7601 7.60175C18.8413 7.47988 18.9464 7.37575 19.069 7.29563C19.1916 7.21552 19.3291 7.1611 19.4733 7.13565C19.6176 7.11021 19.7654 7.11427 19.9081 7.14759C20.0507 7.1809 20.185 7.24279 20.3031 7.32951C20.4211 7.41622 20.5203 7.52596 20.5947 7.6521C20.6691 7.77824 20.7171 7.91816 20.7359 8.06339C20.7548 8.20863 20.7439 8.35617 20.7041 8.4971C20.6643 8.63803 20.5963 8.76942 20.5043 8.88333Z" fill="#F2F5FF"/>
</svg>
